<?xml version="1.0" encoding="UTF-8" standalone="no"?>
<!-- Created with Inkscape (http://www.inkscape.org/) -->

<svg
   xmlns:dc="http://purl.org/dc/elements/1.1/"
   xmlns:cc="http://creativecommons.org/ns#"
   xmlns:rdf="http://www.w3.org/1999/02/22-rdf-syntax-ns#"
   xmlns:svg="http://www.w3.org/2000/svg"
   xmlns="http://www.w3.org/2000/svg"
   xmlns:sodipodi="http://sodipodi.sourceforge.net/DTD/sodipodi-0.dtd"
   xmlns:inkscape="http://www.inkscape.org/namespaces/inkscape"
   width="210mm"
   height="297mm"
   viewBox="0 0 210 297"
   version="1.1"
   id="svg8"
   inkscape:version="0.92.1 r15371"
   sodipodi:docname="step3 of parking.svg">
  <defs
     id="defs2" />
  <sodipodi:namedview
     id="base"
     pagecolor="#ffffff"
     bordercolor="#666666"
     borderopacity="1.0"
     inkscape:pageopacity="0.0"
     inkscape:pageshadow="2"
     inkscape:zoom="0.7"
     inkscape:cx="556.17197"
     inkscape:cy="432.855"
     inkscape:document-units="mm"
     inkscape:current-layer="layer1"
     showgrid="false"
     showguides="true"
     inkscape:guide-bbox="true"
     inkscape:window-width="1680"
     inkscape:window-height="971"
     inkscape:window-x="-8"
     inkscape:window-y="-11"
     inkscape:window-maximized="0" />
  <metadata
     id="metadata5">
    <rdf:RDF>
      <cc:Work
         rdf:about="">
        <dc:format>image/svg+xml</dc:format>
        <dc:type
           rdf:resource="http://purl.org/dc/dcmitype/StillImage" />
        <dc:title></dc:title>
      </cc:Work>
    </rdf:RDF>
  </metadata>
  <g
     inkscape:label="Layer 1"
     inkscape:groupmode="layer"
     id="layer1">
    <rect
       id="rect10"
       width="36.285713"
       height="58.208332"
       x="21.8263"
       y="51.191334"
       style="fill:#d45500;stroke-width:0.26458332"
       rx="4" />
    <g
       id="g2793"
       transform="translate(-51.170037,35.454183)">
      <rect
         rx="4"
         style="fill:#9c9700;fill-opacity:1;stroke-width:0.26458332"
         y="6.5095263"
         x="131.65683"
         height="58.208332"
         width="36.285713"
         id="rect10-4"
         transform="rotate(32.168562)" />
      <rect
         rx="1.37779"
         y="40.120499"
         x="130.78546"
         height="11.508127"
         width="4.463758"
         id="rect27"
         style="fill:#1a1a1a;stroke-width:0.14898553"
         transform="rotate(32.168562)" />
      <rect
         rx="1.3350122"
         y="40.477829"
         x="164.61301"
         height="11.150822"
         width="4.3251667"
         id="rect27-8"
         style="fill:#1a1a1a;stroke-width:0.14435983"
         transform="rotate(32.168562)" />
      <rect
         rx="1.37779"
         y="17.418112"
         x="130.78546"
         height="11.508127"
         width="4.4637585"
         id="rect27-4"
         style="fill:#1a1a1a;stroke-width:0.14898553"
         transform="rotate(32.168562)" />
      <rect
         rx="1.3350122"
         y="17.418112"
         x="164.61301"
         height="11.150822"
         width="4.3251672"
         id="rect27-8-6"
         style="fill:#1a1a1a;stroke-width:0.14435984"
         transform="rotate(32.168562)" />
    </g>
    <path
       style="fill:#000000;fill-opacity:1;stroke-width:0.26458332"
       id="path2471"
       d="m 58.298602,76.463836 c 0.125989,-0.0031 0.235767,-0.04669 0.343749,-0.108122 0.155768,-0.09029 0.305888,-0.18978 0.450239,-0.297362 0.130842,-0.101219 0.260795,-0.203618 0.380884,-0.317548 0.05499,-0.04771 0.111498,-0.09637 0.174008,-0.133884 0.01926,-0.0089 0.03838,-0.01447 0.05951,-0.01376 0,0 -0.0038,0.0028 -0.0038,0.0028 v 0 c -0.01778,-5.29e-4 -0.03456,0.0037 -0.05135,0.0093 -0.06259,0.03733 -0.118989,0.08621 -0.174046,0.133789 -0.120057,0.113977 -0.250034,0.216358 -0.380862,0.317601 -0.146812,0.109455 -0.299609,0.210484 -0.458222,0.302032 -0.108029,0.06138 -0.217873,0.104804 -0.343865,0.107974 0,0 0.0038,-0.0028 0.0038,-0.0028 z"
       inkscape:connector-curvature="0" />
    <path
       style="fill:#000000;fill-opacity:1;stroke-width:0.26458332"
       id="path2473"
       d="m 59.497297,74.989829 c 0.152498,-0.06833 0.301553,-0.143377 0.446368,-0.226798 0.222766,-0.133167 0.450699,-0.257236 0.675859,-0.386209 0.07972,-0.06437 0.239514,-0.09655 0.293169,-0.188125 1.62e-4,-0.0055 2.65e-4,-0.01103 5.29e-4,-0.01654 0,0 0.0042,-0.0021 0.0042,-0.0021 v 0 c -1.27e-4,0.0056 -2.54e-4,0.01117 -2.65e-4,0.01675 -0.05366,0.09263 -0.220281,0.127876 -0.301077,0.192966 -0.225174,0.12895 -0.453104,0.253019 -0.67586,0.386213 -0.14483,0.08339 -0.293878,0.158506 -0.446439,0.226705 0,0 0.0037,-0.0029 0.0037,-0.0029 z"
       inkscape:connector-curvature="0" />
    <path
       style="fill:#000000;fill-opacity:1;stroke-width:0.26458332"
       id="path2477"
       d="m 59.662749,73.951382 c 0.218043,-0.09365 0.42841,-0.203912 0.641291,-0.308636 0.431822,-0.224319 0.862756,-0.450729 1.281983,-0.697934 0.301514,-0.187529 0.606965,-0.369832 0.90419,-0.56419 0.01971,-0.01463 0.04047,-0.02795 0.05911,-0.04392 0.11534,-0.09878 -0.132421,-0.05193 -0.153344,-0.04943 -0.331097,0.05946 -0.633725,0.209679 -0.930844,0.360796 -0.221911,0.130852 -0.464029,0.262816 -0.607968,0.485508 -0.01775,0.02747 -0.03071,0.05775 -0.04606,0.08663 -0.0053,0.02674 -0.01463,0.05299 -0.01579,0.08022 -0.0071,0.167185 0.135649,0.241159 0.264432,0.299894 0.239885,0.07825 0.496705,0.07182 0.742429,0.02368 0.0588,-0.01151 0.116274,-0.02901 0.174408,-0.04351 0.246478,-0.07421 0.495033,-0.191659 0.640998,-0.414194 0.02339,-0.03566 0.04011,-0.07529 0.06016,-0.11293 0.04608,-0.119388 0.08525,-0.27949 -0.01408,-0.387051 -0.05929,-0.06421 -0.09916,-0.06042 -0.180851,-0.08051 -0.302278,-0.015 -0.54796,0.129826 -0.77933,0.30756 -0.117081,0.104611 -0.242906,0.241268 -0.236445,0.410594 7.94e-4,0.02114 0.0067,0.0418 0.01011,0.06269 0.03226,0.07752 0.01447,0.04005 0.05315,0.112543 0,0 -5.3e-4,2.64e-4 -5.3e-4,2.64e-4 v 0 c -0.0387,-0.0725 -0.0209,-0.03502 -0.05316,-0.112561 -0.0034,-0.0209 -0.0093,-0.04155 -0.01013,-0.06271 -0.0065,-0.168843 0.118814,-0.305106 0.235022,-0.410088 0.232603,-0.177638 0.478467,-0.323913 0.781901,-0.308745 0.08171,0.02011 0.121579,0.01632 0.18088,0.08056 0.09932,0.107585 0.06018,0.267695 0.0141,0.387112 -0.02005,0.03765 -0.03676,0.07727 -0.06015,0.112942 -0.146166,0.222878 -0.395343,0.340487 -0.642141,0.414864 -0.05814,0.0145 -0.115612,0.03199 -0.174413,0.04351 -0.245734,0.04813 -0.502563,0.05455 -0.74245,-0.02371 -0.130048,-0.05932 -0.271632,-0.131958 -0.264477,-0.299974 0.0011,-0.02723 0.01053,-0.05349 0.01577,-0.08024 0.01524,-0.02883 0.028,-0.0591 0.0457,-0.08648 0.144206,-0.223144 0.387242,-0.355176 0.60946,-0.486343 0.297122,-0.151115 0.599755,-0.301334 0.93086,-0.360778 0.02093,-0.0024 0.268835,-0.04928 0.153429,0.04958 -0.01865,0.01598 -0.03941,0.02928 -0.05911,0.04392 -0.297225,0.19436 -0.602681,0.376658 -0.904192,0.564192 -0.419616,0.247404 -0.850866,0.47416 -1.283126,0.69859 -0.212881,0.104725 -0.423251,0.21499 -0.641294,0.308634 0,0 5.29e-4,-5.29e-4 5.29e-4,-5.29e-4 z"
       inkscape:connector-curvature="0" />
    <path
       style="fill:#000000;fill-opacity:1;stroke-width:0.26458332"
       id="path2479"
       d="m 61.232384,75.280067 c 0.154776,-0.119402 0.298627,-0.252288 0.437221,-0.389904 0.149514,-0.161544 0.258858,-0.353599 0.303152,-0.570764 0.0095,-0.04664 0.01252,-0.09438 0.01876,-0.141573 0.0061,-0.184955 -0.03025,-0.386525 -0.158324,-0.530217 -0.09332,-0.104696 -0.167145,-0.129136 -0.289888,-0.194522 -0.06471,-0.01945 -0.127921,-0.04483 -0.19412,-0.05834 -0.292499,-0.05972 -0.615132,-0.02511 -0.900165,0.05511 -0.06844,0.01926 -0.134276,0.04682 -0.201417,0.07023 -0.180369,0.085 -0.39507,0.202851 -0.446998,0.415851 -0.02529,0.103759 -5.8e-5,0.13322 0.03249,0.228954 0.02907,0.03591 0.0533,0.07633 0.0872,0.107723 0.193249,0.178959 0.483026,0.228647 0.735986,0.236392 0.08261,0.0026 0.165229,-0.0044 0.247843,-0.0067 0.333983,-0.02745 0.665369,-0.101362 0.977934,-0.223099 0.178597,-0.06956 0.220967,-0.09785 0.386284,-0.185396 0.168796,-0.11158 0.423677,-0.291079 0.418634,-0.523576 -5.29e-4,-0.0293 -0.01222,-0.05733 -0.01831,-0.086 -0.01749,-0.02585 -0.03087,-0.05499 -0.05243,-0.07755 -0.115805,-0.121243 -0.309748,-0.115811 -0.462396,-0.121997 0,0 5.29e-4,-2.65e-4 5.29e-4,-2.65e-4 v 0 c 0.152675,0.0062 0.346612,7.94e-4 0.462431,0.12205 0.02156,0.02257 0.03496,0.05172 0.05244,0.07757 0.0061,0.02868 0.0177,0.05671 0.01834,0.08602 0.0051,0.232974 -0.25064,0.412663 -0.419756,0.524288 -0.16532,0.08755 -0.20769,0.115829 -0.386292,0.185388 -0.312568,0.121733 -0.643956,0.195641 -0.977945,0.223084 -0.08262,0.0021 -0.16524,0.0092 -0.247848,0.0067 -0.252976,-0.0078 -0.542761,-0.05746 -0.736015,-0.236437 -0.0339,-0.0314 -0.05814,-0.07183 -0.08721,-0.107743 -0.03256,-0.09575 -0.0578,-0.125225 -0.03251,-0.229 0.05201,-0.21346 0.267459,-0.331314 0.44813,-0.416539 0.06714,-0.02341 0.132977,-0.05096 0.201422,-0.07022 0.285041,-0.08021 0.607679,-0.114816 0.900184,-0.05508 0.0662,0.01352 0.12942,0.0389 0.19413,0.05835 0.122756,0.0654 0.196574,0.08984 0.289904,0.194553 0.128079,0.143706 0.164438,0.345287 0.158345,0.530257 -0.0062,0.04719 -0.0092,0.09494 -0.01876,0.141581 -0.04429,0.217176 -0.153625,0.409242 -0.303136,0.570796 -0.138594,0.137621 -0.282448,0.270508 -0.437219,0.389914 0,0 -5.29e-4,2.46e-4 -5.29e-4,2.46e-4 z"
       inkscape:connector-curvature="0" />
    <path
       style="fill:#000000;fill-opacity:1;stroke-width:0.26458332"
       id="path2515"
       d="m 59.504962,75.334317 c -0.04533,0 -0.01532,-0.0016 -0.05489,0.004 -0.0047,7.94e-4 -0.01892,0.0024 -0.01423,0.0016 0.07371,-0.01299 0.138591,-0.03511 0.209762,-0.06004 0.450604,-0.18524 0.880583,-0.417803 1.310476,-0.646102 0.565666,-0.312888 1.118896,-0.647586 1.681469,-0.96589 0.161798,-0.09631 0.33084,-0.179615 0.494723,-0.272145 0.05552,-0.03135 0.111035,-0.06189 0.154908,-0.10849 0,0 0.0031,-0.0013 0.0031,-0.0013 v 0 c -0.04527,0.04827 -0.103248,0.07948 -0.160591,0.111871 -0.163862,0.09257 -0.332944,0.175803 -0.494721,0.272151 -0.562639,0.318182 -1.115743,0.653113 -1.681475,0.965882 -0.429895,0.228296 -0.85988,0.46087 -1.310507,0.646063 -0.06676,0.02336 -0.132946,0.0528 -0.204444,0.05599 -0.0048,2.11e-4 0.0095,-7.94e-4 0.01421,-0.0016 0.03935,-0.0056 0.0099,-0.004 0.05493,-0.004 0,0 -0.0027,0.0019 -0.0027,0.0019 z"
       inkscape:connector-curvature="0" />
    <path
       style="fill:#000000;fill-opacity:1;stroke-width:0.26458332"
       id="path2517"
       d="m 59.722743,75.022365 c 0.163975,0.175149 0.355687,0.324025 0.541454,0.47543 0.281553,0.217874 0.549137,0.452739 0.806728,0.698264 0.128357,0.119526 0.256677,0.243182 0.35674,0.388189 0.01447,0.02095 0.01085,0.01117 0.01503,0.02753 0,0 -0.0029,0.0016 -0.0029,0.0016 v 0 c -0.0041,-0.01627 -5.29e-4,-0.0065 -0.01498,-0.02743 C 61.324757,76.440964 61.19645,76.31733 61.068109,76.19782 60.810521,75.9523 60.54294,75.717445 60.261394,75.499577 c -0.185779,-0.151421 -0.377512,-0.300308 -0.541485,-0.475486 0,0 0.0029,-0.0016 0.0029,-0.0016 z"
       inkscape:connector-curvature="0" />
    <path
       style="fill:#000000;fill-opacity:1;stroke-width:0.26458332"
       id="path2531"
       d="m 50.858868,89.014513 c -0.01918,0.01109 -0.03836,0.02215 -0.05754,0.03322 0,0 0.148349,-0.11997 0.148349,-0.11997 v 0 c 0.01963,-0.01098 0.03924,-0.02199 0.05887,-0.03298 0,0 -0.149677,0.119726 -0.149677,0.119726 z"
       inkscape:connector-curvature="0" />
    <flowRoot
       xml:space="preserve"
       id="flowRoot2674"
       style="font-style:normal;font-weight:normal;font-size:40px;line-height:1.25;font-family:sans-serif;letter-spacing:0px;word-spacing:0px;fill:#000000;fill-opacity:1;stroke:none"
       transform="matrix(0.26458333,0,0,0.26458333,-17.10525,-1.0690781)"><flowRegion
         id="flowRegion2676"><rect
           id="rect2678"
           width="246.9823"
           height="79.802048"
           x="117.68277"
           y="527.03473" /></flowRegion><flowPara
         id="flowPara2680"></flowPara></flowRoot>    <text
       xml:space="preserve"
       style="font-style:normal;font-weight:normal;font-size:5.64444447px;line-height:1.25;font-family:sans-serif;letter-spacing:0px;word-spacing:0px;writing-mode:lr-tb;fill:#000000;fill-opacity:1;stroke:none;stroke-width:0.26458332"
       x="112.18557"
       y="122.07265"
       id="text2631-1"><tspan
         sodipodi:role="line"
         x="112.18557"
         y="122.07265"
         style="font-size:5.64444447px;writing-mode:lr-tb;stroke-width:0.26458332"
         id="tspan2633-3">The corner of the car should</tspan><tspan
         sodipodi:role="line"
         x="112.18557"
         y="129.1282"
         style="font-size:5.64444447px;writing-mode:lr-tb;stroke-width:0.26458332"
         id="tspan2921">align with the corner of the</tspan><tspan
         sodipodi:role="line"
         x="112.18557"
         y="136.18376"
         style="font-size:5.64444447px;writing-mode:lr-tb;stroke-width:0.26458332"
         id="tspan2923">rear car.</tspan><tspan
         sodipodi:role="line"
         x="112.18557"
         y="143.23932"
         style="font-size:5.64444447px;writing-mode:lr-tb;stroke-width:0.26458332"
         id="tspan2865" /></text>
    <text
       xml:space="preserve"
       style="font-style:normal;font-variant:normal;font-weight:bold;font-stretch:normal;font-size:5.64444447px;line-height:1.25;font-family:sans-serif;-inkscape-font-specification:'sans-serif, Bold';font-variant-ligatures:normal;font-variant-caps:normal;font-variant-numeric:normal;font-feature-settings:normal;text-align:start;letter-spacing:0px;word-spacing:0px;writing-mode:lr-tb;text-anchor:start;fill:#000000;fill-opacity:1;stroke:none;stroke-width:0.26458332"
       x="111.78521"
       y="162.02071"
       id="text2631-2-5"><tspan
         sodipodi:role="line"
         x="111.78521"
         y="162.02071"
         style="font-style:normal;font-variant:normal;font-weight:bold;font-stretch:normal;font-size:5.64444447px;font-family:sans-serif;-inkscape-font-specification:'sans-serif, Bold';font-variant-ligatures:normal;font-variant-caps:normal;font-variant-numeric:normal;font-feature-settings:normal;text-align:start;writing-mode:lr-tb;text-anchor:start;stroke-width:0.26458332"
         id="tspan2719-2">Turn the wheel all the way </tspan><tspan
         sodipodi:role="line"
         x="111.78521"
         y="169.07626"
         style="font-style:normal;font-variant:normal;font-weight:bold;font-stretch:normal;font-size:5.64444447px;font-family:sans-serif;-inkscape-font-specification:'sans-serif, Bold';font-variant-ligatures:normal;font-variant-caps:normal;font-variant-numeric:normal;font-feature-settings:normal;text-align:start;writing-mode:lr-tb;text-anchor:start;stroke-width:0.26458332"
         id="tspan2936">and continue reversing.</tspan><tspan
         sodipodi:role="line"
         x="111.78521"
         y="176.13182"
         style="font-style:normal;font-variant:normal;font-weight:bold;font-stretch:normal;font-size:5.64444447px;font-family:sans-serif;-inkscape-font-specification:'sans-serif, Bold';font-variant-ligatures:normal;font-variant-caps:normal;font-variant-numeric:normal;font-feature-settings:normal;text-align:start;writing-mode:lr-tb;text-anchor:start;stroke-width:0.26458332"
         id="tspan2871" /></text>
    <rect
       id="rect10-9"
       width="36.285713"
       height="58.208332"
       x="21.826296"
       y="191.16177"
       style="fill:#800080;stroke-width:0.26458332"
       rx="4" />
    <ellipse
       style="fill:none;fill-opacity:1;stroke:#c00000;stroke-width:0.19436793;stroke-opacity:1"
       id="path2608-18"
       cx="56.589973"
       cy="191.70119"
       rx="2.2400815"
       ry="2.2734902" />
    <ellipse
       style="fill:none;fill-opacity:1;stroke:#c00000;stroke-width:0.19436793;stroke-opacity:1"
       id="path2608-3"
       cx="56.979782"
       cy="177.8578"
       rx="2.2400815"
       ry="2.2734902" />
    <text
       xml:space="preserve"
       style="font-style:normal;font-weight:normal;font-size:5.64444447px;line-height:1.25;font-family:sans-serif;letter-spacing:0px;word-spacing:0px;writing-mode:lr-tb;fill:#000000;fill-opacity:1;stroke:none;stroke-width:0.26458332"
       x="112.24545"
       y="204.86406"
       id="text2631-1-4"><tspan
         sodipodi:role="line"
         x="112.24545"
         y="204.86406"
         style="font-size:5.64444447px;writing-mode:lr-tb;stroke-width:0.26458332"
         id="tspan2909">From trial and error, you can </tspan><tspan
         sodipodi:role="line"
         x="112.24545"
         y="211.91962"
         style="font-size:5.64444447px;writing-mode:lr-tb;stroke-width:0.26458332"
         id="tspan2942">use the left-side-mirror, and see if </tspan><tspan
         sodipodi:role="line"
         x="112.24545"
         y="218.97517"
         style="font-size:5.64444447px;writing-mode:lr-tb;stroke-width:0.26458332"
         id="tspan2946">it covers the registration-plate</tspan><tspan
         sodipodi:role="line"
         x="112.24545"
         y="226.03073"
         style="font-size:5.64444447px;writing-mode:lr-tb;stroke-width:0.26458332"
         id="tspan2944">of the car-in-front.</tspan></text>
    <path
       style="fill:none;stroke:#ff0000;stroke-width:0.26458332px;stroke-linecap:butt;stroke-linejoin:miter;stroke-opacity:1"
       d="m 56.995226,180.1364 -0.133636,9.2208"
       id="path2915"
       inkscape:connector-curvature="0" />
  </g>
</svg>
