<?xml version="1.0" encoding="UTF-8" standalone="no"?>
<!-- Created with Inkscape (http://www.inkscape.org/) -->

<svg
   xmlns:dc="http://purl.org/dc/elements/1.1/"
   xmlns:cc="http://creativecommons.org/ns#"
   xmlns:rdf="http://www.w3.org/1999/02/22-rdf-syntax-ns#"
   xmlns:svg="http://www.w3.org/2000/svg"
   xmlns="http://www.w3.org/2000/svg"
   xmlns:sodipodi="http://sodipodi.sourceforge.net/DTD/sodipodi-0.dtd"
   xmlns:inkscape="http://www.inkscape.org/namespaces/inkscape"
   width="210mm"
   height="297mm"
   viewBox="0 0 210 297"
   version="1.1"
   id="svg8"
   inkscape:version="0.92.1 r15371"
   sodipodi:docname="step1 of parking (data).svg">
  <defs
     id="defs2" />
  <sodipodi:namedview
     id="base"
     pagecolor="#ffffff"
     bordercolor="#666666"
     borderopacity="1.0"
     inkscape:pageopacity="0.0"
     inkscape:pageshadow="2"
     inkscape:zoom="1.4"
     inkscape:cx="256.5133"
     inkscape:cy="593.22044"
     inkscape:document-units="mm"
     inkscape:current-layer="layer1"
     showgrid="false"
     showguides="true"
     inkscape:guide-bbox="true"
     inkscape:window-width="1680"
     inkscape:window-height="971"
     inkscape:window-x="-8"
     inkscape:window-y="-11"
     inkscape:window-maximized="0" />
  <metadata
     id="metadata5">
    <rdf:RDF>
      <cc:Work
         rdf:about="">
        <dc:format>image/svg+xml</dc:format>
        <dc:type
           rdf:resource="http://purl.org/dc/dcmitype/StillImage" />
        <dc:title></dc:title>
      </cc:Work>
    </rdf:RDF>
  </metadata>
  <g
     inkscape:label="Layer 1"
     inkscape:groupmode="layer"
     id="layer1">
    <rect
       id="rect10"
       width="36.285713"
       height="58.208332"
       x="38.931549"
       y="52.26041"
       style="fill:#d45500;stroke-width:0.26458332"
       rx="4" />
    <rect
       id="rect10-4"
       width="36.285713"
       height="58.208332"
       x="87.799835"
       y="70.814156"
       style="fill:#9c9700;fill-opacity:1;stroke-width:0.26458332"
       rx="4" />
    <rect
       style="fill:#1a1a1a;stroke-width:0.14898553"
       id="rect27"
       width="4.463758"
       height="11.508127"
       x="86.928459"
       y="104.42512"
       rx="1.37779" />
    <rect
       style="fill:#1a1a1a;stroke-width:0.14435983"
       id="rect27-8"
       width="4.3251667"
       height="11.150822"
       x="120.75601"
       y="104.78245"
       rx="1.3350122" />
    <rect
       style="fill:#1a1a1a;stroke-width:0.14898553"
       id="rect27-4"
       width="4.4637585"
       height="11.508127"
       x="86.928459"
       y="81.72274"
       rx="1.37779" />
    <rect
       style="fill:#1a1a1a;stroke-width:0.14435984"
       id="rect27-8-6"
       width="4.3251672"
       height="11.150822"
       x="120.75601"
       y="81.72274"
       rx="1.3350122" />
    <rect
       id="rect10-4-0"
       width="36.285713"
       height="58.208332"
       x="146.78162"
       y="138.06102"
       style="fill:#9c9700;fill-opacity:1;stroke-width:0.26458332"
       rx="6.2000008" />
    <rect
       style="fill:#1a1a1a;stroke-width:0.14898553"
       id="rect27-5"
       width="4.4637585"
       height="11.508127"
       x="145.91025"
       y="171.67198"
       rx="1.37779" />
    <rect
       style="fill:#1a1a1a;stroke-width:0.14435984"
       id="rect27-8-4"
       width="4.3251672"
       height="11.150822"
       x="179.73779"
       y="172.0293"
       rx="1.3350122" />
    <rect
       style="fill:#1a1a1a;stroke-width:0.14898553"
       id="rect27-4-6"
       width="4.4637589"
       height="11.508127"
       x="145.91025"
       y="148.9696"
       rx="1.37779" />
    <rect
       style="fill:#1a1a1a;stroke-width:0.14435984"
       id="rect27-8-6-7"
       width="4.3251672"
       height="11.150822"
       x="179.73779"
       y="148.9696"
       rx="1.3350122" />
    <path
       style="fill:#000000;fill-opacity:1;stroke-width:0.26458332"
       id="path2471"
       d="m 75.403852,77.532914 c 0.125989,-0.0031 0.235767,-0.04669 0.343749,-0.108122 0.155768,-0.09029 0.305888,-0.18978 0.450239,-0.297362 0.130842,-0.101219 0.260795,-0.203618 0.380884,-0.317548 0.05499,-0.04771 0.111498,-0.09637 0.174008,-0.133884 0.01926,-0.0089 0.03838,-0.01447 0.05951,-0.01376 0,0 -0.0038,0.0028 -0.0038,0.0028 v 0 c -0.01778,-5.29e-4 -0.03456,0.0037 -0.05135,0.0093 -0.06259,0.03733 -0.118989,0.08621 -0.174046,0.133789 -0.120057,0.113977 -0.250034,0.216358 -0.380862,0.317601 -0.146812,0.109455 -0.299609,0.210484 -0.458222,0.302032 -0.108029,0.06138 -0.217873,0.104804 -0.343865,0.107974 0,0 0.0038,-0.0028 0.0038,-0.0028 z"
       inkscape:connector-curvature="0" />
    <path
       style="fill:#000000;fill-opacity:1;stroke-width:0.26458332"
       id="path2473"
       d="m 76.602547,76.058907 c 0.152498,-0.06833 0.301553,-0.143377 0.446368,-0.226798 0.222766,-0.133167 0.450699,-0.257236 0.675859,-0.386209 0.07972,-0.06437 0.239514,-0.09655 0.293169,-0.188125 1.62e-4,-0.0055 2.65e-4,-0.01103 5.29e-4,-0.01654 0,0 0.0042,-0.0021 0.0042,-0.0021 v 0 c -1.27e-4,0.0056 -2.54e-4,0.01117 -2.65e-4,0.01675 -0.05366,0.09263 -0.220281,0.127876 -0.301077,0.192966 -0.225174,0.12895 -0.453104,0.253019 -0.67586,0.386213 -0.14483,0.08339 -0.293878,0.158506 -0.446439,0.226705 0,0 0.0037,-0.0029 0.0037,-0.0029 z"
       inkscape:connector-curvature="0" />
    <path
       style="fill:#000000;fill-opacity:1;stroke-width:0.26458332"
       id="path2475"
       d="m 78.714438,73.534663 c -0.159777,0.02933 -0.309187,0.09883 -0.448295,0.180584 -0.147928,0.09955 -0.276005,0.228465 -0.344048,0.395965 -0.01281,0.0315 -0.0213,0.06457 -0.03196,0.09685 -0.03878,0.152998 -0.008,0.307337 0.101767,0.424449 0.02064,0.02204 0.0458,0.03937 0.0687,0.05906 0.138658,0.08717 0.298685,0.120039 0.460404,0.08731 0.03078,-0.0062 0.06018,-0.01799 0.09027,-0.027 0.132334,-0.05345 0.262517,-0.133527 0.330846,-0.264583 0.01347,-0.02582 0.02111,-0.05428 0.03165,-0.08142 0.0054,-0.02849 0.01437,-0.05654 0.01611,-0.08549 0.0072,-0.119007 -0.03995,-0.254109 -0.137318,-0.327462 -0.02737,-0.02061 -0.0601,-0.03296 -0.09015,-0.04943 -0.03713,-0.0087 -0.07341,-0.02273 -0.111398,-0.02614 -0.184105,-0.01648 -0.390385,0.05958 -0.539776,0.1627 -0.03774,0.02603 -0.07015,0.05906 -0.105231,0.08859 -0.122988,0.123579 -0.225679,0.297397 -0.134659,0.470646 0.01381,0.0263 0.03451,0.04837 0.05177,0.07256 0.153789,0.14482 0.353232,0.169937 0.555194,0.175229 0.11267,-0.0071 0.05911,0.0011 0.160983,-0.02233 0,0 -0.0037,0.0028 -0.0037,0.0028 v 0 c -0.101933,0.02328 -0.04835,0.01521 -0.161049,0.02223 -0.202091,-0.0053 -0.401619,-0.03061 -0.555432,-0.175591 -0.01728,-0.02424 -0.03799,-0.04633 -0.05183,-0.07267 -0.0911,-0.173382 0.0113,-0.347369 0.134416,-0.471162 0.03773,-0.03109 0.0729,-0.06561 0.113205,-0.09328 0.149841,-0.102878 0.355557,-0.179088 0.539985,-0.162422 0.03802,0.0034 0.07431,0.01749 0.111469,0.02625 0.03007,0.01651 0.06283,0.0289 0.09022,0.04955 0.09743,0.07349 0.144645,0.208698 0.137533,0.327853 -0.0019,0.02897 -0.01072,0.05705 -0.01606,0.08557 -0.01053,0.02717 -0.01815,0.05566 -0.03161,0.08152 -0.06955,0.133665 -0.204354,0.2144 -0.338836,0.269311 -0.0301,0.009 -0.05952,0.02072 -0.09032,0.02693 -0.161833,0.03263 -0.321922,-2.65e-4 -0.460621,-0.08763 -0.02291,-0.01971 -0.04809,-0.03708 -0.06875,-0.05915 -0.109781,-0.117226 -0.140718,-0.271698 -0.101973,-0.424847 0.01064,-0.0323 0.01916,-0.06539 0.03194,-0.0969 0.06798,-0.167576 0.196012,-0.29659 0.343943,-0.396218 0.141861,-0.08319 0.29329,-0.155581 0.456403,-0.185069 0,0 -0.0037,0.0028 -0.0037,0.0028 z"
       inkscape:connector-curvature="0" />
    <path
       style="fill:#000000;fill-opacity:1;stroke-width:0.26458332"
       id="path2477"
       d="m 76.767999,75.02046 c 0.218043,-0.09365 0.42841,-0.203912 0.641291,-0.308636 0.431822,-0.224319 0.862756,-0.450729 1.281983,-0.697934 0.301514,-0.187529 0.606965,-0.369832 0.90419,-0.56419 0.01971,-0.01463 0.04047,-0.02795 0.05911,-0.04392 0.11534,-0.09878 -0.132421,-0.05193 -0.153344,-0.04943 -0.331097,0.05946 -0.633725,0.209679 -0.930844,0.360796 -0.221911,0.130852 -0.464029,0.262816 -0.607968,0.485508 -0.01775,0.02747 -0.03071,0.05775 -0.04606,0.08663 -0.0053,0.02674 -0.01463,0.05299 -0.01579,0.08022 -0.0071,0.167185 0.135649,0.241159 0.264432,0.299894 0.239885,0.07825 0.496705,0.07182 0.742429,0.02368 0.0588,-0.01151 0.116274,-0.02901 0.174408,-0.04351 0.246478,-0.07421 0.495033,-0.191659 0.640998,-0.414194 0.02339,-0.03566 0.04011,-0.07529 0.06016,-0.11293 0.04608,-0.119388 0.08525,-0.27949 -0.01408,-0.387051 -0.05929,-0.06421 -0.09916,-0.06042 -0.180851,-0.08051 -0.302278,-0.015 -0.54796,0.129826 -0.77933,0.30756 -0.117081,0.104611 -0.242906,0.241268 -0.236445,0.410594 7.94e-4,0.02114 0.0067,0.0418 0.01011,0.06269 0.03226,0.07752 0.01447,0.04005 0.05315,0.112543 0,0 -5.3e-4,2.64e-4 -5.3e-4,2.64e-4 v 0 c -0.0387,-0.0725 -0.0209,-0.03502 -0.05316,-0.112561 -0.0034,-0.0209 -0.0093,-0.04155 -0.01013,-0.06271 -0.0065,-0.168843 0.118814,-0.305106 0.235022,-0.410088 0.232603,-0.177638 0.478467,-0.323913 0.781901,-0.308745 0.08171,0.02011 0.121579,0.01632 0.18088,0.08056 0.09932,0.107585 0.06018,0.267695 0.0141,0.387112 -0.02005,0.03765 -0.03676,0.07727 -0.06015,0.112942 -0.146166,0.222878 -0.395343,0.340487 -0.642141,0.414864 -0.05814,0.0145 -0.115612,0.03199 -0.174413,0.04351 -0.245734,0.04813 -0.502563,0.05455 -0.74245,-0.02371 C 78.034429,74.610388 77.892845,74.53775 77.9,74.369734 c 0.0011,-0.02723 0.01053,-0.05349 0.01577,-0.08024 0.01524,-0.02883 0.028,-0.0591 0.0457,-0.08648 0.144206,-0.223144 0.387242,-0.355176 0.60946,-0.486343 0.297122,-0.151115 0.599755,-0.301334 0.93086,-0.360778 0.02093,-0.0024 0.268835,-0.04928 0.153429,0.04958 -0.01865,0.01598 -0.03941,0.02928 -0.05911,0.04392 -0.297225,0.19436 -0.602681,0.376658 -0.904192,0.564192 -0.419616,0.247404 -0.850866,0.47416 -1.283126,0.69859 -0.212881,0.104725 -0.423251,0.21499 -0.641294,0.308634 0,0 5.29e-4,-5.29e-4 5.29e-4,-5.29e-4 z"
       inkscape:connector-curvature="0" />
    <path
       style="fill:#000000;fill-opacity:1;stroke-width:0.26458332"
       id="path2479"
       d="m 78.337634,76.349145 c 0.154776,-0.119402 0.298627,-0.252288 0.437221,-0.389904 0.149514,-0.161544 0.258858,-0.353599 0.303152,-0.570764 0.0095,-0.04664 0.01252,-0.09438 0.01876,-0.141573 0.0061,-0.184955 -0.03025,-0.386525 -0.158324,-0.530217 -0.09332,-0.104696 -0.167145,-0.129136 -0.289888,-0.194522 -0.06471,-0.01945 -0.127921,-0.04483 -0.19412,-0.05834 -0.292499,-0.05972 -0.615132,-0.02511 -0.900165,0.05511 -0.06844,0.01926 -0.134276,0.04682 -0.201417,0.07023 -0.180369,0.085 -0.39507,0.202851 -0.446998,0.415851 -0.02529,0.103759 -5.8e-5,0.13322 0.03249,0.228954 0.02907,0.03591 0.0533,0.07633 0.0872,0.107723 0.193249,0.178959 0.483026,0.228647 0.735986,0.236392 0.08261,0.0026 0.165229,-0.0044 0.247843,-0.0067 0.333983,-0.02745 0.665369,-0.101362 0.977934,-0.223099 0.178597,-0.06956 0.220967,-0.09785 0.386284,-0.185396 0.168796,-0.11158 0.423677,-0.291079 0.418634,-0.523576 -5.29e-4,-0.0293 -0.01222,-0.05733 -0.01831,-0.086 -0.01749,-0.02585 -0.03087,-0.05499 -0.05243,-0.07755 -0.115805,-0.121243 -0.309748,-0.115811 -0.462396,-0.121997 0,0 5.29e-4,-2.65e-4 5.29e-4,-2.65e-4 v 0 c 0.152675,0.0062 0.346612,7.94e-4 0.462431,0.12205 0.02156,0.02257 0.03496,0.05172 0.05244,0.07757 0.0061,0.02868 0.0177,0.05671 0.01834,0.08602 0.0051,0.232974 -0.25064,0.412663 -0.419756,0.524288 -0.16532,0.08755 -0.20769,0.115829 -0.386292,0.185388 -0.312568,0.121733 -0.643956,0.195641 -0.977945,0.223084 -0.08262,0.0021 -0.16524,0.0092 -0.247848,0.0067 -0.252976,-0.0078 -0.542761,-0.05746 -0.736015,-0.236437 -0.0339,-0.0314 -0.05814,-0.07183 -0.08721,-0.107743 -0.03256,-0.09575 -0.0578,-0.125225 -0.03251,-0.229 0.05201,-0.21346 0.267459,-0.331314 0.44813,-0.416539 0.06714,-0.02341 0.132977,-0.05096 0.201422,-0.07022 0.285041,-0.08021 0.607679,-0.114816 0.900184,-0.05508 0.0662,0.01352 0.12942,0.0389 0.19413,0.05835 0.122756,0.0654 0.196574,0.08984 0.289904,0.194553 0.128079,0.143706 0.164438,0.345287 0.158345,0.530257 -0.0062,0.04719 -0.0092,0.09494 -0.01876,0.141581 -0.04429,0.217176 -0.153625,0.409242 -0.303136,0.570796 -0.138594,0.137621 -0.282448,0.270508 -0.437219,0.389914 0,0 -5.29e-4,2.46e-4 -5.29e-4,2.46e-4 z"
       inkscape:connector-curvature="0" />
    <path
       style="fill:#000000;fill-opacity:1;stroke-width:0.26458332"
       id="path2515"
       d="m 76.610212,76.403395 c -0.04533,0 -0.01532,-0.0016 -0.05489,0.004 -0.0047,7.94e-4 -0.01892,0.0024 -0.01423,0.0016 0.07371,-0.01299 0.138591,-0.03511 0.209762,-0.06004 0.450604,-0.18524 0.880583,-0.417803 1.310476,-0.646102 0.565666,-0.312888 1.118896,-0.647586 1.681469,-0.96589 0.161798,-0.09631 0.33084,-0.179615 0.494723,-0.272145 0.05552,-0.03135 0.111035,-0.06189 0.154908,-0.10849 0,0 0.0031,-0.0013 0.0031,-0.0013 v 0 c -0.04527,0.04827 -0.103248,0.07948 -0.160591,0.111871 -0.163862,0.09257 -0.332944,0.175803 -0.494721,0.272151 -0.562639,0.318182 -1.115743,0.653113 -1.681475,0.965882 -0.429895,0.228296 -0.85988,0.46087 -1.310507,0.646063 -0.06676,0.02336 -0.132946,0.0528 -0.204444,0.05599 -0.0048,2.11e-4 0.0095,-7.94e-4 0.01421,-0.0016 0.03935,-0.0056 0.0099,-0.004 0.05493,-0.004 0,0 -0.0027,0.0019 -0.0027,0.0019 z"
       inkscape:connector-curvature="0" />
    <path
       style="fill:#000000;fill-opacity:1;stroke-width:0.26458332"
       id="path2517"
       d="m 76.827993,76.091443 c 0.163975,0.175149 0.355687,0.324025 0.541454,0.47543 0.281553,0.217874 0.549137,0.452739 0.806728,0.698264 0.128357,0.119526 0.256677,0.243182 0.35674,0.388189 0.01447,0.02095 0.01085,0.01117 0.01503,0.02753 0,0 -0.0029,0.0016 -0.0029,0.0016 v 0 c -0.0041,-0.01627 -5.29e-4,-0.0065 -0.01498,-0.02743 -0.100058,-0.144984 -0.228365,-0.268618 -0.356706,-0.388128 -0.257588,-0.24552 -0.525169,-0.480375 -0.806715,-0.698243 -0.185779,-0.151421 -0.377512,-0.300308 -0.541485,-0.475486 0,0 0.0029,-0.0016 0.0029,-0.0016 z"
       inkscape:connector-curvature="0" />
    <path
       style="fill:#000000;fill-opacity:1;stroke-width:0.26458332"
       id="path2519"
       d="m 110.0401,63.025905 c 0.0782,-0.03307 0.15195,-0.07495 0.23048,-0.107212 0.13761,-0.0538 0.28683,-0.06406 0.43284,-0.0736 0.13057,-0.0053 0.26511,0.02024 0.35551,0.123039 0.0164,0.01865 0.0284,0.04076 0.0426,0.06114 0.0894,0.173067 0.0649,0.313137 0.0257,0.494197 -0.0195,0.112382 -0.0564,0.226266 -0.0531,0.341656 0.002,0.06113 0.016,0.100383 0.0317,0.158862 0.0184,0.07576 0.0645,0.130868 0.11385,0.188087 0,0 -0.003,0.0019 -0.003,0.0019 v 0 c -0.0494,-0.05726 -0.0955,-0.112422 -0.11392,-0.188217 -0.0157,-0.05848 -0.0301,-0.09783 -0.0318,-0.158959 -0.003,-0.115403 0.0336,-0.229309 0.0531,-0.341701 0.0392,-0.18097 0.0638,-0.320951 -0.0256,-0.493956 -0.0142,-0.02037 -0.0261,-0.04245 -0.0425,-0.06108 -0.0904,-0.102735 -0.22489,-0.128096 -0.35537,-0.122817 -0.14599,0.0096 -0.29518,0.01984 -0.43277,0.07369 -0.0785,0.03229 -0.15226,0.07415 -0.23046,0.107228 0,0 0.003,-0.0021 0.003,-0.0021 z"
       inkscape:connector-curvature="0" />
    <path
       style="fill:#000000;fill-opacity:1;stroke-width:0.26458332"
       id="path2531"
       d="m 67.964118,90.083591 c -0.01918,0.01109 -0.03836,0.02215 -0.05754,0.03322 0,0 0.148349,-0.11997 0.148349,-0.11997 v 0 c 0.01963,-0.01098 0.03924,-0.02199 0.05887,-0.03298 0,0 -0.149677,0.119726 -0.149677,0.119726 z"
       inkscape:connector-curvature="0" />
    <path
       style="fill:#000000;fill-opacity:1;stroke-width:0.26458332"
       id="path2548"
       d="m 84.999821,68.025848 c -0.225642,0.06533 -0.434438,0.177128 -0.640839,0.286991 -0.315579,0.165348 -0.62302,0.34512 -0.930304,0.525169 -0.141973,0.08079 -0.280395,0.167251 -0.419122,0.253335 -0.05246,0.02975 -0.105457,0.02798 -0.163083,0.02162 0,0 0.0027,-0.0019 0.0027,-0.0019 v 0 c 0.05501,0.006 0.106476,0.0083 0.157242,-0.0185 0.138744,-0.08605 0.277201,-0.172473 0.419121,-0.253343 0.309181,-0.181158 0.618503,-0.362077 0.936024,-0.528463 0.206415,-0.109855 0.415224,-0.221615 0.640874,-0.286944 0,0 -0.0026,0.0021 -0.0026,0.0021 z"
       inkscape:connector-curvature="0" />
    <path
       style="fill:#000000;fill-opacity:1;stroke-width:0.26458332"
       id="path2550"
       d="m 84.185817,64.107033 c 0.148545,-0.0034 0.282856,-0.05859 0.413052,-0.125032 0.04609,-0.03553 0.170709,-0.120713 0.159633,-0.193013 -0.0064,-0.04177 -0.05466,-0.05003 -0.08377,-0.06306 -0.03486,-0.0053 -0.0694,-0.01352 -0.104587,-0.01579 -0.348871,-0.02254 -0.726016,0.120549 -1.047289,0.237942 -0.339466,0.144222 -0.744623,0.27985 -1.02837,0.524349 -0.02979,0.02566 -0.05454,0.05666 -0.08181,0.08499 -0.0093,0.02551 -0.02764,0.04937 -0.02797,0.07653 -7.94e-4,0.06395 0.05955,0.100032 0.108455,0.121505 0.162796,0.07148 0.347607,0.069 0.520822,0.07507 0.373954,-0.01252 0.75289,-0.07325 1.102315,-0.21196 0.05515,-0.02191 0.107796,-0.04966 0.161695,-0.07449 0.105873,-0.0631 0.280339,-0.141446 0.285546,-0.290377 0.0021,-0.05964 -0.02828,-0.08262 -0.06155,-0.126924 -0.02559,-0.0177 -0.04867,-0.03972 -0.07676,-0.0531 -0.165772,-0.07901 -0.40055,-0.05945 -0.573202,-0.02212 -0.05907,0.01278 -0.11649,0.03226 -0.174736,0.04839 -0.179903,0.0673 -0.49834,0.194744 -0.52284,0.423595 -0.0032,0.03027 0.008,0.06035 0.01204,0.09053 0.01622,0.02684 0.02818,0.05678 0.04868,0.08052 0.131257,0.152072 0.37049,0.186624 0.557223,0.211135 0.0254,-7.94e-4 0.247719,0.02782 0.264382,0.0021 0.0031,-0.0048 -0.0109,-0.0034 -0.01635,-0.0051 0,0 0.0028,-0.0019 0.0028,-0.0019 v 0 c 0.0036,0.003 0.01394,0.0054 0.0109,0.0089 -0.01966,0.02323 -0.237701,-0.0013 -0.264461,-0.0021 -0.186849,-0.02455 -0.426078,-0.05919 -0.557382,-0.211387 -0.0205,-0.02379 -0.0325,-0.05376 -0.04874,-0.08064 -0.004,-0.03022 -0.01535,-0.06035 -0.01212,-0.09067 0.02445,-0.229965 0.347599,-0.359135 0.528513,-0.427053 0.05825,-0.01611 0.115679,-0.0356 0.174758,-0.04836 0.172733,-0.03731 0.407548,-0.0568 0.573346,0.02233 0.02811,0.01341 0.05121,0.03546 0.07682,0.05319 0.03333,0.0444 0.06373,0.06744 0.0617,0.127191 -0.0051,0.151217 -0.184385,0.230031 -0.291181,0.293893 -0.0539,0.02482 -0.106553,0.05258 -0.161714,0.07447 -0.349464,0.138671 -0.728414,0.19939 -1.102389,0.211863 -0.17323,-0.0061 -0.35815,-0.0036 -0.520927,-0.07523 -0.04905,-0.02159 -0.109358,-0.05782 -0.108667,-0.121894 2.64e-4,-0.02719 0.0186,-0.0511 0.02791,-0.07666 0.02726,-0.02835 0.052,-0.05936 0.08179,-0.08504 0.285032,-0.245758 0.692912,-0.382746 1.034102,-0.52764 0.321244,-0.117353 0.698559,-0.260506 1.04739,-0.23781 0.03521,0.0024 0.06976,0.01058 0.104641,0.01585 0.02937,0.0132 0.0775,0.02148 0.08399,0.06346 0.01146,0.07411 -0.118374,0.161441 -0.165251,0.196551 -0.130228,0.06641 -0.264586,0.121508 -0.413149,0.124905 0,0 0.0027,-0.0019 0.0027,-0.0019 z"
       inkscape:connector-curvature="0" />
    <text
       xml:space="preserve"
       style="font-style:normal;font-weight:normal;font-size:4.23333311px;line-height:1.25;font-family:sans-serif;letter-spacing:0px;word-spacing:0px;fill:#000000;fill-opacity:1;stroke:none;stroke-width:0.26458332"
       x="77.302139"
       y="66.786919"
       id="text2604"><tspan
         sodipodi:role="line"
         id="tspan2602"
         x="77.302139"
         y="66.786919"
         style="font-size:4.23333311px;stroke-width:0.26458332">1 to 2 feet gap</tspan></text>
    <path
       style="fill:#4d4d4d;stroke:#c00000;stroke-width:0.19698144px;stroke-linecap:butt;stroke-linejoin:miter;stroke-opacity:1"
       d="m 76.664921,109.90178 8.072029,0.0476"
       id="path2606"
       inkscape:connector-curvature="0" />
    <ellipse
       style="fill:none;fill-opacity:1;stroke:#c00000;stroke-width:0.19436793;stroke-opacity:1"
       id="path2608"
       cx="74.467972"
       cy="110.09507"
       rx="2.2400815"
       ry="2.2734902" />
    <ellipse
       style="fill:none;fill-opacity:1;stroke:#c00000;stroke-width:0.19436793;stroke-opacity:1"
       id="path2608-1"
       cx="86.996231"
       cy="110.04497"
       rx="2.2400815"
       ry="2.2734902" />
    <text
       xml:space="preserve"
       style="font-style:normal;font-weight:normal;font-size:5.64444447px;line-height:1.25;font-family:sans-serif;letter-spacing:0px;word-spacing:0px;writing-mode:lr-tb;fill:#000000;fill-opacity:1;stroke:none;stroke-width:0.26458332"
       x="32.421623"
       y="119.8103"
       id="text2631"><tspan
         sodipodi:role="line"
         id="tspan2629"
         x="32.421623"
         y="119.8103"
         style="font-size:5.64444447px;writing-mode:lr-tb;stroke-width:0.26458332">align the axel with </tspan><tspan
         sodipodi:role="line"
         x="32.421623"
         y="126.86586"
         style="font-size:5.64444447px;writing-mode:lr-tb;stroke-width:0.26458332"
         id="tspan2633">back of front car</tspan></text>
    <path
       style="fill:#4d4d4d;stroke:#c00000;stroke-width:0.2444547px;stroke-linecap:butt;stroke-linejoin:miter;stroke-opacity:1"
       d="m 75.163185,74.591784 12.63452,0.04684"
       id="path2606-4"
       inkscape:connector-curvature="0" />
    <path
       style="fill:none;stroke:#000000;stroke-width:0.26458332px;stroke-linecap:butt;stroke-linejoin:miter;stroke-opacity:1"
       d="m 77.107258,73.228585 -1.944074,1.363197 1.661975,1.501387"
       id="path2650"
       inkscape:connector-curvature="0" />
    <path
       style="fill:none;stroke:#000000;stroke-width:0.26458332px;stroke-linecap:butt;stroke-linejoin:miter;stroke-opacity:1"
       d="m 86.361465,73.195179 1.43624,1.443445 -1.469647,1.396294"
       id="path2652"
       inkscape:connector-curvature="0" />
    <path
       style="fill:none;stroke:#000000;stroke-width:0.26458332px;stroke-linecap:butt;stroke-linejoin:miter;stroke-opacity:1"
       d="m 75.163184,74.591782 12.634521,0.04684"
       id="path2654"
       inkscape:connector-curvature="0" />
    <flowRoot
       xml:space="preserve"
       id="flowRoot2674"
       style="fill:black;fill-opacity:1;stroke:none;font-family:sans-serif;font-style:normal;font-weight:normal;font-size:40px;line-height:1.25;letter-spacing:0px;word-spacing:0px"><flowRegion
         id="flowRegion2676"><rect
           id="rect2678"
           width="246.9823"
           height="79.802048"
           x="117.68277"
           y="527.03473" /></flowRegion><flowPara
         id="flowPara2680" /></flowRoot>    <text
       xml:space="preserve"
       style="font-style:normal;font-weight:bold;font-size:5.64444444px;line-height:1.25;font-family:sans-serif;letter-spacing:0px;word-spacing:0px;writing-mode:lr;fill:#000000;fill-opacity:1;stroke:none;stroke-width:0.26458332;-inkscape-font-specification:'sans-serif, Bold';font-stretch:normal;font-variant:normal;text-anchor:start;text-align:start;font-variant-ligatures:normal;font-variant-caps:normal;font-variant-numeric:normal;font-feature-settings:normal;"
       x="39.413582"
       y="140.38623"
       id="text2631-2"><tspan
         sodipodi:role="line"
         x="39.413582"
         y="140.38623"
         style="font-size:5.64444444px;writing-mode:lr;stroke-width:0.26458332;-inkscape-font-specification:'sans-serif, Bold';font-family:sans-serif;font-weight:bold;font-style:normal;font-stretch:normal;font-variant:normal;text-anchor:start;text-align:start;font-variant-ligatures:normal;font-variant-caps:normal;font-variant-numeric:normal;font-feature-settings:normal;"
         id="tspan2633-0">full turn, keep going</tspan><tspan
         sodipodi:role="line"
         x="39.413582"
         y="147.44179"
         style="font-size:5.64444444px;writing-mode:lr;stroke-width:0.26458332;-inkscape-font-specification:'sans-serif, Bold';font-family:sans-serif;font-weight:bold;font-style:normal;font-stretch:normal;font-variant:normal;text-anchor:start;text-align:start;font-variant-ligatures:normal;font-variant-caps:normal;font-variant-numeric:normal;font-feature-settings:normal;"
         id="tspan2719">until next sign</tspan></text>
  </g>
</svg>
